<svg xmlns="http://www.w3.org/2000/svg" viewBox="-130 -115 260 285" width="512" height="561">
<defs>
<linearGradient id="a0" x1="0" y1="-1" x2="0" y2="0"><stop offset="0" stop-color="#00EEFF"/><stop offset="1" stop-color="#0077cc"/></linearGradient>
<linearGradient id="a1" x1="0" y1="-1" x2="0" y2="0"><stop offset="0" stop-color="#33B4FF"/><stop offset="1" stop-color="#1a5fc4"/></linearGradient>
<linearGradient id="a2" x1="0" y1="-1" x2="0" y2="0"><stop offset="0" stop-color="#7A7BFF"/><stop offset="1" stop-color="#3d3dbb"/></linearGradient>
<linearGradient id="a3" x1="0" y1="-1" x2="0" y2="0"><stop offset="0" stop-color="#B865FF"/><stop offset="1" stop-color="#6b2fb0"/></linearGradient>
<linearGradient id="a4" x1="0" y1="-1" x2="0" y2="0"><stop offset="0" stop-color="#E85CE0"/><stop offset="1" stop-color="#9426a0"/></linearGradient>
<linearGradient id="wg" gradientUnits="userSpaceOnUse" x1="-168.68" y1="0" x2="168.68" y2="0">
  <stop offset="0" stop-color="#00CFFF"/>
  <stop offset="0.17" stop-color="#7A7BFF"/>
  <stop offset="0.33" stop-color="#E85CE0"/>
  <stop offset="0.5" stop-color="#00CFFF"/>
  <stop offset="0.67" stop-color="#7A7BFF"/>
  <stop offset="0.83" stop-color="#E85CE0"/>
  <stop offset="1" stop-color="#00CFFF"/>
  <animateTransform attributeName="gradientTransform" type="translate"
    from="0 0" to="168.68 0" dur="9s" repeatCount="indefinite"/>
</linearGradient>
</defs>
<style>
.outer{transform-box:fill-box;transform-origin:center center;animation:sp 9s linear infinite}
.inner{transform-box:fill-box;transform-origin:center center;animation:spr 9s linear infinite}
.whole{transform-box:fill-box;transform-origin:center center;animation:pu 4.5s ease-in-out infinite}
.word{animation:wb 4.5s ease-in-out infinite}
@keyframes sp{to{transform:rotate(45deg)}}
@keyframes spr{to{transform:rotate(-45deg)}}
@keyframes pu{0%,100%{filter:drop-shadow(0 0 3px rgba(122,123,255,.25))}
 50%{filter:drop-shadow(0 0 9px rgba(122,123,255,.6)) drop-shadow(0 0 18px rgba(0,207,255,.25))}}
@keyframes wb{0%,100%{opacity:.88;filter:drop-shadow(0 0 1px rgba(122,123,255,.0))}
 50%{opacity:1;filter:drop-shadow(0 0 6px rgba(122,123,255,.45))}}
</style>
<g class="whole">
<g class="outer"><g transform="rotate(0)"><polygon points="0,-89 21,-55 0,-21 -21,-55" fill="url(#a0)"/></g><g transform="rotate(45)"><polygon points="0,-89 21,-55 0,-21 -21,-55" fill="url(#a1)"/></g><g transform="rotate(90)"><polygon points="0,-89 21,-55 0,-21 -21,-55" fill="url(#a2)"/></g><g transform="rotate(135)"><polygon points="0,-89 21,-55 0,-21 -21,-55" fill="url(#a3)"/></g><g transform="rotate(180)"><polygon points="0,-89 21,-55 0,-21 -21,-55" fill="url(#a4)"/></g><g transform="rotate(225)"><polygon points="0,-89 21,-55 0,-21 -21,-55" fill="url(#a3)"/></g><g transform="rotate(270)"><polygon points="0,-89 21,-55 0,-21 -21,-55" fill="url(#a2)"/></g><g transform="rotate(315)"><polygon points="0,-89 21,-55 0,-21 -21,-55" fill="url(#a1)"/></g></g>
<g class="inner" opacity="0.8"><g transform="rotate(22.5)"><polygon points="0,-55 13,-34 0,-13 -13,-34" fill="#33B4FF" opacity="0.5"/></g><g transform="rotate(67.5)"><polygon points="0,-55 13,-34 0,-13 -13,-34" fill="#7A7BFF" opacity="0.5"/></g><g transform="rotate(112.5)"><polygon points="0,-55 13,-34 0,-13 -13,-34" fill="#B865FF" opacity="0.5"/></g><g transform="rotate(157.5)"><polygon points="0,-55 13,-34 0,-13 -13,-34" fill="#E85CE0" opacity="0.5"/></g><g transform="rotate(202.5)"><polygon points="0,-55 13,-34 0,-13 -13,-34" fill="#E85CE0" opacity="0.5"/></g><g transform="rotate(247.5)"><polygon points="0,-55 13,-34 0,-13 -13,-34" fill="#B865FF" opacity="0.5"/></g><g transform="rotate(292.5)"><polygon points="0,-55 13,-34 0,-13 -13,-34" fill="#7A7BFF" opacity="0.5"/></g><g transform="rotate(337.5)"><polygon points="0,-55 13,-34 0,-13 -13,-34" fill="#33B4FF" opacity="0.5"/></g></g>
<g><circle r="13" fill="#04070c" stroke="#B865FF" stroke-width="1.8"/><circle r="5" fill="#E8D5FF"/></g>
</g>
<g class="word" transform="translate(-84.3,148)" fill="url(#wg)">
<path d="M8.3 -19.1Q10.1 -19.1 11.5 -18.7Q12.9 -18.2 13.8 -17.4Q14.8 -16.5 15.3 -15.4Q15.8 -14.2 15.8 -12.7Q15.8 -11.5 15.4 -10.3Q15.1 -9.2 14.3 -8.2Q13.5 -7.3 12.2 -6.7Q10.9 -6.1 8.9 -6.1H6.2V0.0H2.5V-19.1ZM8.9 -9.7Q9.8 -9.7 10.3 -10.0Q10.9 -10.3 11.2 -10.7Q11.6 -11.2 11.7 -11.7Q11.9 -12.1 11.9 -12.6Q11.9 -12.9 11.8 -13.4Q11.7 -13.8 11.4 -14.3Q11.1 -14.8 10.5 -15.2Q9.9 -15.5 8.9 -15.5H6.2V-9.7ZM12.5 -7.4 17.2 0.0H12.8L8.0 -7.3Z"/>
<path d="M31.1 -9.5Q31.1 -11.5 31.9 -13.3Q32.6 -15.1 34.0 -16.4Q35.3 -17.8 37.1 -18.6Q38.9 -19.3 40.9 -19.3Q42.9 -19.3 44.7 -18.6Q46.4 -17.8 47.8 -16.4Q49.2 -15.1 49.9 -13.3Q50.7 -11.5 50.7 -9.5Q50.7 -7.5 49.9 -5.7Q49.2 -4.0 47.8 -2.6Q46.4 -1.3 44.7 -0.5Q42.9 0.2 40.9 0.2Q38.9 0.2 37.1 -0.5Q35.3 -1.3 34.0 -2.6Q32.6 -4.0 31.9 -5.7Q31.1 -7.5 31.1 -9.5ZM35.0 -9.5Q35.0 -8.3 35.5 -7.2Q35.9 -6.1 36.8 -5.2Q37.6 -4.4 38.7 -3.9Q39.7 -3.4 41.0 -3.4Q42.2 -3.4 43.3 -3.9Q44.3 -4.4 45.1 -5.2Q45.9 -6.1 46.3 -7.2Q46.8 -8.3 46.8 -9.5Q46.8 -10.8 46.3 -12.0Q45.9 -13.1 45.1 -13.9Q44.3 -14.8 43.2 -15.2Q42.2 -15.7 40.9 -15.7Q39.7 -15.7 38.6 -15.2Q37.5 -14.8 36.7 -13.9Q35.9 -13.1 35.5 -12.0Q35.0 -10.8 35.0 -9.5Z"/>
<path d="M76.7 -14.5Q75.6 -15.1 74.5 -15.5Q73.3 -15.9 72.3 -15.9Q71.1 -15.9 70.4 -15.4Q69.7 -14.9 69.7 -13.9Q69.7 -13.2 70.2 -12.7Q70.8 -12.2 71.6 -11.8Q72.5 -11.3 73.4 -11.0Q74.2 -10.7 75.0 -10.3Q75.8 -9.8 76.5 -9.2Q77.1 -8.6 77.5 -7.6Q77.9 -6.7 77.9 -5.3Q77.9 -3.8 77.2 -2.6Q76.4 -1.3 75.0 -0.6Q73.5 0.2 71.4 0.2Q70.3 0.2 69.1 -0.0Q68.0 -0.2 66.9 -0.7Q65.8 -1.1 64.8 -1.8L66.5 -4.8Q67.2 -4.3 68.0 -3.9Q68.7 -3.5 69.6 -3.3Q70.4 -3.1 71.0 -3.1Q71.7 -3.1 72.4 -3.3Q73.1 -3.5 73.5 -4.0Q74.0 -4.4 74.0 -5.3Q74.0 -5.8 73.6 -6.3Q73.2 -6.8 72.6 -7.2Q72.0 -7.6 71.2 -7.9Q70.3 -8.2 69.4 -8.6Q68.5 -9.1 67.6 -9.7Q66.8 -10.3 66.3 -11.3Q65.8 -12.2 65.8 -13.6Q65.8 -15.3 66.5 -16.5Q67.3 -17.7 68.6 -18.4Q70.0 -19.2 71.8 -19.2Q74.1 -19.2 75.5 -18.7Q77.0 -18.1 78.1 -17.4Z"/>
<path d="M91.5 0.0 100.1 -19.9H100.3L108.9 0.0H104.6L99.0 -14.0L101.8 -15.9L95.2 0.0ZM97.4 -6.9H103.1L104.4 -3.7H96.2Z"/>
<path d="M138.1 -1.6Q137.8 -1.3 136.9 -0.9Q136.1 -0.4 134.8 -0.1Q133.6 0.2 132.1 0.2Q129.9 0.2 128.1 -0.6Q126.3 -1.4 125.1 -2.7Q123.8 -4.0 123.2 -5.7Q122.5 -7.5 122.5 -9.4Q122.5 -11.6 123.2 -13.4Q123.9 -15.2 125.1 -16.6Q126.3 -17.9 128.1 -18.6Q129.8 -19.3 131.8 -19.3Q133.8 -19.3 135.3 -18.8Q136.7 -18.3 137.7 -17.7L136.2 -14.1Q135.5 -14.6 134.5 -15.2Q133.4 -15.7 132.0 -15.7Q130.9 -15.7 129.9 -15.2Q128.9 -14.8 128.1 -14.0Q127.4 -13.1 126.9 -12.0Q126.5 -10.9 126.5 -9.6Q126.5 -8.2 126.9 -7.1Q127.3 -6.0 128.0 -5.1Q128.8 -4.3 129.8 -3.9Q130.9 -3.4 132.2 -3.4Q133.7 -3.4 134.8 -3.9Q135.9 -4.4 136.5 -5.0Z"/>
<path d="M153.8 -19.1H166.9V-15.5H157.6V-11.4H165.8V-7.8H157.6V-3.6H167.2V0.0H153.8Z"/>
</g>
</svg>